# xmcd
#
# Track frame offsets: 
#        182
#        13465
#        29850
#        42775
#        59282
#        70467
#        90950
#        108677
#        121487
#        132797
#        146457
#        161112
#        172792
#        186922
#        199107
#        209077
#
# Disc length: 3005 seconds
#
# Revision: 1
# Processed by: cddbd v1.5.2PL0 Copyright (c) Steve Scherf et al.
# Submitted via: ExactAudioCopy v0.99pb5
#
DISCID=f20bbb10
DTITLE=Various Artist - Hollandse truck-liedjes
DYEAR=1900
DGENRE=Country
TTITLE0=Container song
TTITLE1=Met de vlam in de pijp
TTITLE2=Zingende wielen
TTITLE3=Halverwege Amsterdam en Bremershaven
TTITLE4=Kilometervreters
TTITLE5=Stille Willie
TTITLE6=Met zwaailicht en sirene
TTITLE7=Bak roest op 18 wielen
TTITLE8=Als chauffeur ben ik geboren
TTITLE9=Ik heb een truck als een woning
TTITLE10=Hoor m'n wielen
TTITLE11=Ik heb m'n wagen volgeladen
TTITLE12='n Pracht van een vracht
TTITLE13=Asfaltrocker
TTITLE14=Wat men zegt
TTITLE15=Truckers naar Polen
EXTD=
EXTT0=
EXTT1=
EXTT2=
EXTT3=
EXTT4=
EXTT5=
EXTT6=
EXTT7=
EXTT8=
EXTT9=
EXTT10=
EXTT11=
EXTT12=
EXTT13=
EXTT14=
EXTT15=
PLAYORDER=
